<svg xmlns="http://www.w3.org/2000/svg">
  <symbol id="power" class="h-6 w-6" fill="none" viewBox="0 0 24 24" stroke="currentColor">
    <path stroke-linecap="round" stroke-linejoin="round" stroke-width="2" d="M13 10V3L4 14h7v7l9-11h-7z" />
  </symbol>

  <symbol id="power-fill" class="h-5 w-5" viewBox="0 0 20 20" fill="currentColor">
    <path fill-rule="evenodd" d="M11.3 1.046A1 1 0 0112 2v5h4a1 1 0 01.82 1.573l-7 10A1 1 0 018 18v-5H4a1 1 0 01-.82-1.573l7-10a1 1 0 011.12-.38z" clip-rule="evenodd" />
  </symbol>

  <symbol id="adjustments" class="h-6 w-6" fill="none" viewBox="0 0 24 24" stroke="currentColor">
    <path stroke-linecap="round" stroke-linejoin="round" stroke-width="2" d="M12 6V4m0 2a2 2 0 100 4m0-4a2 2 0 110 4m-6 8a2 2 0 100-4m0 4a2 2 0 110-4m0 4v2m0-6V4m6 6v10m6-2a2 2 0 100-4m0 4a2 2 0 110-4m0 4v2m0-6V4" />
  </symbol>

  <symbol id="view-grid" class="h-6 w-6" fill="none" viewBox="0 0 24 24" stroke="currentColor">
    <path stroke-linecap="round" stroke-linejoin="round" stroke-width="2" d="M4 6a2 2 0 012-2h2a2 2 0 012 2v2a2 2 0 01-2 2H6a2 2 0 01-2-2V6zM14 6a2 2 0 012-2h2a2 2 0 012 2v2a2 2 0 01-2 2h-2a2 2 0 01-2-2V6zM4 16a2 2 0 012-2h2a2 2 0 012 2v2a2 2 0 01-2 2H6a2 2 0 01-2-2v-2zM14 16a2 2 0 012-2h2a2 2 0 012 2v2a2 2 0 01-2 2h-2a2 2 0 01-2-2v-2z" />
  </symbol>

  <symbol id="exclamation" class="h-6 w-6" fill="none" viewBox="0 0 24 24" stroke="currentColor">
    <path stroke-linecap="round" stroke-linejoin="round" stroke-width="2" d="M12 9v2m0 4h.01m-6.938 4h13.856c1.54 0 2.502-1.667 1.732-3L13.732 4c-.77-1.333-2.694-1.333-3.464 0L3.34 16c-.77 1.333.192 3 1.732 3z" />
  </symbol>

  <symbol id="res" class="h-6 w-6" fill="none" viewBox="0 0 24 24" stroke="currentColor">
    <path stroke-linecap="round" stroke-linejoin="round" stroke-width="2" d="M6 5c7.18 0 13 5.82 13 13M6 11a7 7 0 017 7m-6 0a1 1 0 11-2 0 1 1 0 012 0z" />
  </symbol>

	<symbol id="ban" class="h-6 w-6" fill="none" viewBox="0 0 24 24" stroke="currentColor">
		<path stroke-linecap="round" stroke-linejoin="round" stroke-width="2" d="M18.364 18.364A9 9 0 005.636 5.636m12.728 12.728A9 9 0 015.636 5.636m12.728 12.728L5.636 5.636" />
	</symbol>

	<symbol id="check-circle" class="h-6 w-6" fill="none" viewBox="0 0 24 24" stroke="currentColor">
		<path stroke-linecap="round" stroke-linejoin="round" stroke-width="2" d="M9 12l2 2 4-4m6 2a9 9 0 11-18 0 9 9 0 0118 0z" />
	</symbol>

	<symbol id="info-circle" class="h-5 w-5" viewBox="0 0 20 20" fill="currentColor">
  <path fill-rule="evenodd" d="M18 10a8 8 0 11-16 0 8 8 0 0116 0zm-7-4a1 1 0 11-2 0 1 1 0 012 0zM9 9a1 1 0 000 2v3a1 1 0 001 1h1a1 1 0 100-2v-3a1 1 0 00-1-1H9z" clip-rule="evenodd" />
</symbol>

  <symbol id="plus-circle" class="h-5 w-5" viewBox="0 0 20 20" fill="currentColor">
    <path fill-rule="evenodd" d="M10 18a8 8 0 100-16 8 8 0 000 16zm1-11a1 1 0 10-2 0v2H7a1 1 0 100 2h2v2a1 1 0 102 0v-2h2a1 1 0 100-2h-2V7z" clip-rule="evenodd" />
  </symbol>

  <symbol id="refresh" class="h-5 w-5" viewBox="0 0 20 20" fill="currentColor">
    <path fill-rule="evenodd" d="M4 2a1 1 0 011 1v2.101a7.002 7.002 0 0111.601 2.566 1 1 0 11-1.885.666A5.002 5.002 0 005.999 7H9a1 1 0 010 2H4a1 1 0 01-1-1V3a1 1 0 011-1zm.008 9.057a1 1 0 011.276.61A5.002 5.002 0 0014.001 13H11a1 1 0 110-2h5a1 1 0 011 1v5a1 1 0 11-2 0v-2.101a7.002 7.002 0 01-11.601-2.566 1 1 0 01.61-1.276z" clip-rule="evenodd" />
  </symbol>

  <symbol id="trash" class="h-5 w-5" viewBox="0 0 20 20" fill="currentColor">
    <path fill-rule="evenodd" d="M9 2a1 1 0 00-.894.553L7.382 4H4a1 1 0 000 2v10a2 2 0 002 2h8a2 2 0 002-2V6a1 1 0 100-2h-3.382l-.724-1.447A1 1 0 0011 2H9zM7 8a1 1 0 012 0v6a1 1 0 11-2 0V8zm5-1a1 1 0 00-1 1v6a1 1 0 102 0V8a1 1 0 00-1-1z" clip-rule="evenodd" />
  </symbol>

  <symbol id="connect" viewBox="0 0 36 36">
    <path d="M17,12H14.15a6.25,6.25,0,0,0-6.21,5H2v2H7.93a6.22,6.22,0,0,0,6.22,5H17Z" class="clr-i-solid clr-i-solid-path-1"></path><path d="M28.23,17A6.25,6.25,0,0,0,22,12H19V24h3a6.22,6.22,0,0,0,6.22-5H34V17Z" class="clr-i-solid clr-i-solid-path-2"></path>
  </symbol>

  <symbol id="pencil" class="h-5 w-5" viewBox="0 0 20 20" fill="currentColor">
    <path d="M13.586 3.586a2 2 0 112.828 2.828l-.793.793-2.828-2.828.793-.793zM11.379 5.793L3 14.172V17h2.828l8.38-8.379-2.83-2.828z" />
  </symbol>

  <symbol id="code" class="h-5 w-5" viewBox="0 0 20 20" fill="currentColor">
    <path fill-rule="evenodd" d="M12.316 3.051a1 1 0 01.633 1.265l-4 12a1 1 0 11-1.898-.632l4-12a1 1 0 011.265-.633zM5.707 6.293a1 1 0 010 1.414L3.414 10l2.293 2.293a1 1 0 11-1.414 1.414l-3-3a1 1 0 010-1.414l3-3a1 1 0 011.414 0zm8.586 0a1 1 0 011.414 0l3 3a1 1 0 010 1.414l-3 3a1 1 0 11-1.414-1.414L16.586 10l-2.293-2.293a1 1 0 010-1.414z" clip-rule="evenodd" />
  </symbol>

  <symbol id="ethernet" x="0px" y="0px" viewBox="0 0 503.607 503.607" style="enable-background:new 0 0 503.607 503.607;" xml:space="preserve">
    <g transform="translate(1 1)">
      <polygon style="fill:#FFE100;" points="292.77,326.344 208.836,326.344 175.262,200.443 175.262,108.115 326.344,108.115 326.344,200.443"/>
      <polygon style="fill:#FFA800;" points="309.557,108.115 309.557,200.443 275.984,326.344 292.77,326.344 326.344,200.443 326.344,108.115"/>
      <polygon style="fill:#FFFFFF;" points="192.049,108.115 192.049,200.443 225.623,326.344 208.836,326.344 175.262,200.443 175.262,108.115 	"/>
      <path style="fill:#63D3FD;" d="M208.836,108.115c0,23.502,18.466,41.967,41.967,41.967s41.967-18.466,41.967-41.967H208.836z"/>
      <g>
        <polygon style="fill:#FFE100;" points="217.229,74.541 217.229,15.787 183.656,15.787 183.656,108.115 234.016,108.115 234.016,74.541 		"/>
        <polygon style="fill:#FFE100;" points="284.377,15.787 284.377,74.541 267.59,74.541 267.59,108.115 317.951,108.115 317.951,15.787 		"/>
      </g>
      <polygon style="fill:#63D3FD;" points="217.229,7.393 217.229,74.541 234.016,74.541 234.016,108.115 267.59,108.115 267.59,74.541 284.377,74.541 284.377,7.393 	"/>
      <polygon style="fill:#FFE100;" points="234.016,494.213 267.59,494.213 267.59,326.344 234.016,326.344"/>
      <path d="M292.77,334.738h-83.934c-3.357,0-6.715-2.518-8.393-5.875l-33.574-109.115c0-0.839,0-1.679,0-2.518V108.115 c0-5.036,3.357-8.393,8.393-8.393h151.082c5.036,0,8.393,3.357,8.393,8.393v109.115c0,0.839,0,1.679,0,2.518l-33.574,109.115 C299.485,332.22,296.128,334.738,292.77,334.738z M214.711,317.951h71.344l31.895-101.561v-99.882H183.656v99.043L214.711,317.951z"/>
      <path d="M267.59,502.607h-33.574c-5.036,0-8.393-3.357-8.393-8.393V326.344c0-5.036,3.357-8.393,8.393-8.393h33.574 c5.036,0,8.393,3.357,8.393,8.393v167.869C275.984,499.249,272.626,502.607,267.59,502.607z M242.41,485.82h16.787V334.738H242.41 V485.82z"/>
      <path d="M250.803,158.475c-27.698,0-50.361-22.662-50.361-50.361c0-5.036,3.357-8.393,8.393-8.393h83.934 c5.036,0,8.393,3.357,8.393,8.393C301.164,135.813,278.502,158.475,250.803,158.475z M218.069,116.508 c3.357,14.269,16.787,25.18,32.734,25.18s28.538-10.911,32.734-25.18H218.069z"/>
      <path d="M267.59,116.508h-33.574c-5.036,0-8.393-3.357-8.393-8.393v-25.18h-8.393c-5.036,0-8.393-3.357-8.393-8.393V7.393 c0-5.036,3.357-8.393,8.393-8.393h67.148c5.036,0,8.393,3.357,8.393,8.393v67.148c0,5.036-3.357,8.393-8.393,8.393h-8.393v25.18 C275.984,113.151,272.626,116.508,267.59,116.8z M242.41,99.721h16.787v-25.18c0-5.036,3.357-8.393,8.393-8.393h8.393V15.787 h-50.361v50.361h8.393c5.036,0,8.393,3.357,8.393,8.393V99.721z"/>
      <path d="M234.016,116.508h-50.361c-5.036,0-8.393-3.357-8.393-8.393V15.787c0-5.036,3.357-8.393,8.393-8.393h33.574 c5.036,0,8.393,3.357,8.393,8.393v50.361h8.393c5.036,0,8.393,3.357,8.393,8.393v33.574 C242.41,113.151,239.052,116.508,234.016,116.508z M192.049,99.721h33.574V82.934h-8.393c-5.036,0-8.393-3.357-8.393-8.393V24.18 h-16.787V99.721z"/>
      <path d="M317.951,116.508H267.59c-5.036,0-8.393-3.357-8.393-8.393V74.541c0-5.036,3.357-8.393,8.393-8.393h8.393V15.787 c0-5.036,3.357-8.393,8.393-8.393h33.574c5.036,0,8.393,3.357,8.393,8.393v92.328C326.344,113.151,322.987,116.508,317.951,116.508z M275.984,99.721h33.574V24.18H292.77v50.361c0,5.036-3.357,8.393-8.393,8.393h-8.393V99.721z"/>
      <path d="M225.623,301.164h-26.859c-5.036,0-8.393-3.357-8.393-8.393s3.357-8.393,8.393-8.393h26.859c5.036,0,8.393,3.357,8.393,8.393S230.659,301.164,225.623,301.164z"/>
      <path d="M302.843,301.164h-26.859c-5.036,0-8.393-3.357-8.393-8.393s3.357-8.393,8.393-8.393h26.859c5.036,0,8.393,3.357,8.393,8.393S307.879,301.164,302.843,301.164z"/>
      <path d="M225.623,267.59h-37.77c-5.036,0-8.393-3.357-8.393-8.393s3.357-8.393,8.393-8.393h37.77c5.036,0,8.393,3.357,8.393,8.393 S230.659,267.59,225.623,267.59z"/>
      <path d="M313.754,267.59h-37.771c-5.036,0-8.393-3.357-8.393-8.393s3.357-8.393,8.393-8.393h37.771c5.036,0,8.393,3.357,8.393,8.393S317.951,267.59,313.754,267.59z"/>
      <path d="M225.623,234.016H177.78c-5.036,0-8.393-3.357-8.393-8.393s3.357-8.393,8.393-8.393h47.843c5.036,0,8.393,3.357,8.393,8.393S230.659,234.016,225.623,234.016z"/>
      <path d="M323.826,234.016h-47.843c-5.036,0-8.393-3.357-8.393-8.393s3.357-8.393,8.393-8.393h47.843c5.036,0,8.393,3.357,8.393,8.393S328.023,234.016,323.826,234.016z"/>
      <path d="M225.623,200.443h-50.361c-5.036,0-8.393-3.357-8.393-8.393c0-5.036,3.357-8.393,8.393-8.393h50.361c5.036,0,8.393,3.357,8.393,8.393C234.016,197.085,230.659,200.443,225.623,200.443z"/>
      <path d="M326.344,200.443h-50.361c-5.036,0-8.393-3.357-8.393-8.393c0-5.036,3.357-8.393,8.393-8.393h50.361c5.036,0,8.393,3.357,8.393,8.393C334.738,197.085,331.38,200.443,326.344,200.443z"/>
      <path d="M385.098,502.607h-268.59c-5.036,0-8.393-3.357-8.393-8.393c0-5.036,3.357-8.393,8.393-8.393h268.59c5.036,0,8.393,3.357,8.393,8.393C393.492,499.249,390.134,502.607,385.098,502.607z"/>
    </g>
  </symbol>

  <symbol id="trashColor" x="0px" y="0px" viewBox="0 0 512 512" style="enable-background:new 0 0 512 512;" xml:space="preserve">
    <g transform="translate(1 1)">
      <polygon style="fill:#1CD759;" points="410.307,109.933 417.133,69.827 306.2,51.907 295.96,109.933"/>
      <polygon style="fill:#54C9FD;" points="340.333,7.533 168.813,22.04 173.933,68.973 228.547,58.733 237.933,109.933 295.96,109.933 306.2,51.907 345.453,57.88"/>
      <polygon style="fill:#FD9808;" points="237.933,109.933 228.547,58.733 84.333,86.893 88.6,109.933"/>
      <path style="fill:#FCC309;" d="M408.6,178.2H101.4c-9.387,0-17.067-7.68-17.067-17.067V127c0-9.387,7.68-17.067,17.067-17.067h307.2c9.387,0,17.067,7.68,17.067,17.067v34.133C425.667,170.52,417.987,178.2,408.6,178.2"/>
      <path style="fill:#FFFFFF;" d="M84.333,161.133V127c0-9.387,7.68-17.067,17.067-17.067H75.8c-9.387,0-17.067,7.68-17.067,17.067v34.133c0,9.387,7.68,17.067,17.067,17.067h25.6C92.013,178.2,84.333,170.52,84.333,161.133"/>
      <path style="fill:#FD9808;" d="M434.2,109.933h-25.6c9.387,0,17.067,7.68,17.067,17.067v34.133c0,9.387-7.68,17.067-17.067,17.067h25.6c9.387,0,17.067-7.68,17.067-17.067V127C451.267,117.613,443.587,109.933,434.2,109.933"/>
      <path style="fill:#FFDD09;" d="M107.373,178.2l31.573,308.907c0.853,8.533,6.827,15.36,14.507,15.36H357.4c7.68,0,13.653-6.827,14.507-15.36l30.72-308.907H107.373z"/>
      <path style="fill:#FCC309;" d="M135.533,502.467h238.933c8.533,0,16.213-6.827,17.067-15.36L395.8,434.2H114.2l4.267,52.907 C119.32,495.64,127,502.467,135.533,502.467"/>
      <path style="fill:#FFFFFF;" d="M138.093,487.107L106.52,178.2h-25.6l36.693,308.907c0.853,8.533,8.533,15.36,17.067,15.36h17.92 C144.92,502.467,138.947,495.64,138.093,487.107"/>
      <path style="fill:#FD9808;" d="M400.067,178.2l-31.573,308.907c-0.853,8.533-6.827,15.36-14.507,15.36h17.92c8.533,0,16.213-6.827,17.067-15.36L425.667,178.2H400.067z"/>
      <path d="M434.2,186.733H75.8c-14.507,0-25.6-11.093-25.6-25.6V127c0-14.507,11.093-25.6,25.6-25.6h358.4c14.507,0,25.6,11.093,25.6,25.6v34.133C459.8,175.64,448.707,186.733,434.2,186.733z M75.8,118.467c-5.12,0-8.533,3.413-8.533,8.533v34.133c0,5.12,3.413,8.533,8.533,8.533h358.4c5.12,0,8.533-3.413,8.533-8.533V127c0-5.12-3.413-8.533-8.533-8.533H75.8z"/>
      <path d="M374.467,511H135.533c-13.653,0-24.747-10.24-25.6-23.893L73.24,179.053c0-2.56,0.853-5.12,1.707-6.827c0.853-1.707,4.267-2.56,6.827-2.56H429.08c2.56,0,5.12,0.853,5.973,2.56s2.56,4.267,1.707,6.827L400.067,487.96 C399.213,500.76,387.267,511,374.467,511z M91.16,186.733L127,485.4c0,5.12,4.267,8.533,8.533,8.533h238.933c4.267,0,8.533-3.413,8.533-7.68l35.84-299.52H91.16z"/>
      <path d="M237.933,118.467H88.6c-4.267,0-7.68-2.56-8.533-6.827L75.8,87.747c-0.853-4.267,2.56-8.533,6.827-9.387L226.84,50.2c2.56,0,5.12,0,6.827,1.707c1.707,1.707,3.413,3.413,3.413,5.12l9.387,51.2c0.853,2.56,0,5.12-1.707,6.827 C243.053,117.613,240.493,118.467,237.933,118.467z M95.427,101.4H226.84l-5.973-32.427L94.573,92.867L95.427,101.4z"/>
      <path d="M410.307,118.467H295.96c-2.56,0-5.12-0.853-6.827-3.413c-1.707-1.707-2.56-4.267-1.707-6.827l10.24-58.027c0.853-4.267,5.12-7.68,9.387-6.827l110.933,17.92c2.56,0,4.267,1.707,5.973,3.413c1.707,1.707,1.707,4.267,1.707,5.973l-6.827,40.107C417.987,115.907,413.72,118.467,410.307,118.467z M306.2,101.4h96.427l4.267-24.747l-93.867-15.36L306.2,101.4z"/>
      <path d="M295.96,118.467h-58.027c-4.267,0-7.68-2.56-8.533-6.827l-7.68-42.667l-46.08,8.533c-2.56,0.853-5.12,0-6.827-1.707s-3.413-3.413-3.413-5.973l-5.12-46.933c0-2.56,0.853-4.267,1.707-5.973c1.707-1.707,3.413-2.56,5.973-3.413L339.48-1c4.267,0,8.533,3.413,9.387,7.68l5.12,50.347c0,2.56-0.853,5.12-2.56,6.827c-1.707,1.707-4.267,2.56-6.827,2.56l-31.573-5.12l-8.533,50.347C303.64,115.907,300.227,118.467,295.96,118.467z M244.76,101.4h44.373l8.533-51.2c0.853-4.267,5.12-7.68,9.387-6.827l28.16,4.267L331.8,16.92l-153.6,12.8l3.413,29.013L226.84,50.2c2.56,0,5.12,0,6.827,1.707c1.707,1.707,3.413,3.413,3.413,5.12L244.76,101.4z"/>
      <path d="M374.467,511H135.533c-12.8,0-24.747-10.24-25.6-23.893l-4.267-52.907c0-2.56,0.853-5.12,2.56-6.827c0.853-0.853,3.413-1.707,5.973-1.707h282.453c2.56,0,4.267,0.853,5.973,2.56s2.56,4.267,2.56,6.827l-5.12,52.907 C399.213,500.76,387.267,511,374.467,511z M123.587,442.733l3.413,43.52c0,4.267,4.267,7.68,8.533,7.68h238.933c4.267,0,8.533-3.413,8.533-7.68l3.413-43.52H123.587z"/>
      <path d="M255,391.533c-5.12,0-8.533-3.413-8.533-8.533V229.4c0-5.12,3.413-8.533,8.533-8.533s8.533,3.413,8.533,8.533V383 C263.533,388.12,260.12,391.533,255,391.533z"/>
      <path d="M176.493,391.533c-4.267,0-7.68-3.413-8.533-7.68l-13.653-152.747c0-5.12,3.413-8.533,7.68-9.387c5.12-0.853,8.533,3.413,9.387,7.68l13.653,152.747C185.027,386.413,181.613,390.68,176.493,391.533L176.493,391.533z"/>
      <path d="M333.507,391.533L333.507,391.533c-5.12-0.853-8.533-4.267-8.533-9.387L338.627,229.4c0-5.12,4.267-8.533,9.387-7.68c5.12,0,8.533,4.267,7.68,9.387L342.04,383.853C342.04,388.12,337.773,391.533,333.507,391.533z"/>
    </g>
  </symbol>
</svg>
